<svg height='100px' width='100px'  fill="#f38f19" xmlns="http://www.w3.org/2000/svg" viewBox="0 0 64 64" x="0px" y="0px"><g><path d="M31.293,51.293,31.586,51,30,49.414l-.293.293a1.125,1.125,0,0,0,0,1.586A1.148,1.148,0,0,0,31.293,51.293Z"></path><path d="M24,56h6V53.573a3.055,3.055,0,0,1-1.021-.362,2,2,0,1,1-1.546-2.161,3.137,3.137,0,0,1,0-1.05H24Z"></path><rect x="24" y="18" width="6" height="6"></rect><polygon points="24 48 28.586 48 29.178 47.408 30 45.764 30 42 24 42 24 48"></polygon><path d="M24,40h6V34H24Zm2-4h2v2H26Z"></path><polygon points="32 42.586 32.586 42 32 42 32 42.586"></polygon><rect x="32" y="18" width="6" height="6"></rect><rect x="32" y="26" width="6" height="6"></rect><rect x="40" y="18" width="6" height="6"></rect><path d="M48,57a1,1,0,0,1-1,1H7a1,1,0,0,1-1-1V17a1,1,0,0,1,1-1H47a1,1,0,0,1,1,1v9.586l2-2V6a2,2,0,0,0-2-2H6A2,2,0,0,0,4,6V58a2,2,0,0,0,2,2H48a2,2,0,0,0,2-2V37.414l-2,2ZM36,7H46V9H36Zm0,4H46v2H36ZM8,7A1,1,0,0,1,9,6H33a1,1,0,0,1,1,1v6a1,1,0,0,1-1,1H9a1,1,0,0,1-1-1Z"></path><path d="M46,28.586V26H40v6h2.586l1.142-1.142a2.015,2.015,0,1,1,1.13-1.13Z"></path><polygon points="40 34.586 40.586 34 40 34 40 34.586"></polygon><rect x="24" y="26" width="6" height="6"></rect><rect x="10" y="8" width="22" height="4"></rect><path d="M32,53.222V56h6V50h-.764l-3.644,1.822-.885.885A3.1,3.1,0,0,1,32,53.222Z"></path><polygon points="31.217 47.803 33.197 49.783 35.312 48.726 32.274 45.688 31.217 47.803"></polygon><path d="M22,42H16v6h6Zm-3,5a2,2,0,1,1,2-2A2,2,0,0,1,19,47Z"></path><polygon points="38 36.586 38 34 32 34 32 40 34.586 40 38 36.586"></polygon><path d="M14,18H8v6h6Zm-3,5a2,2,0,1,1,2-2A2,2,0,0,1,11,23Z"></path><rect x="8" y="26" width="6" height="6"></rect><rect x="8" y="34" width="6" height="6"></rect><rect x="40" y="50" width="6" height="6"></rect><rect x="8" y="50" width="6" height="6"></rect><path d="M59.282,21.718a2.459,2.459,0,0,0-2.693-.522L59.8,24.411A2.459,2.459,0,0,0,59.282,21.718Z"></path><polygon points="46 42 45.414 42 40 47.414 40 48 46 48 46 42"></polygon><rect x="31.36" y="33.97" width="26.269" height="5.071" transform="translate(-12.781 42.155) rotate(-45)"></rect><rect x="54.868" y="22.475" width="2.243" height="5.071" transform="translate(-1.286 46.916) rotate(-45)"></rect><rect x="16" y="18" width="6" height="6"></rect><path d="M22,26H16v6h6Zm-3,5a2,2,0,1,1,2-2A2,2,0,0,1,19,31Z"></path><rect x="16" y="34" width="6" height="6"></rect><rect x="16" y="50" width="6" height="6"></rect><path d="M14,42H8v6h6Zm-3,5a2,2,0,1,1,2-2A2,2,0,0,1,11,47Z"></path></g></svg>